<svg width="46" height="44" viewBox="0 0 46 44" fill="none" xmlns="http://www.w3.org/2000/svg">
<path d="M28.0339 3.05902C25.8453 -1.01967 20.1538 -1.01967 17.9652 3.05902L0.724505 35.213C-1.39176 39.1597 1.38173 44 5.75886 44H40.2419C44.619 44 47.3925 39.1597 45.2746 35.213L28.0339 3.05902ZM25.0534 33.8456C25.0534 34.4066 24.837 34.9447 24.4518 35.3415C24.0667 35.7382 23.5443 35.9611 22.9995 35.9611C22.4548 35.9611 21.9324 35.7382 21.5473 35.3415C21.1621 34.9447 20.9457 34.4066 20.9457 33.8456C20.9457 33.2845 21.1621 32.7464 21.5473 32.3497C21.9324 31.9529 22.4548 31.7301 22.9995 31.7301C23.5443 31.7301 24.0667 31.9529 24.4518 32.3497C24.837 32.7464 25.0534 33.2845 25.0534 33.8456ZM22.9995 11.8443C23.4353 11.8443 23.8532 12.0226 24.1614 12.34C24.4695 12.6574 24.6426 13.0878 24.6426 13.5367V27.0759C24.6426 27.5248 24.4695 27.9553 24.1614 28.2727C23.8532 28.59 23.4353 28.7684 22.9995 28.7684C22.5638 28.7684 22.1459 28.59 21.8377 28.2727C21.5296 27.9553 21.3565 27.5248 21.3565 27.0759V13.5367C21.3565 13.0878 21.5296 12.6574 21.8377 12.34C22.1459 12.0226 22.5638 11.8443 22.9995 11.8443Z" fill="black"/>
</svg>
