<svg width="30" height="30" viewBox="0 0 30 30" fill="none" xmlns="http://www.w3.org/2000/svg">
<circle cx="15" cy="15" r="14.5" stroke="#ABCDF6"/>
<path d="M15 10.4334C12.6059 10.4334 10.6737 12.4729 10.6737 15.0001C10.6737 17.5272 12.6059 19.5668 15 19.5668C17.3941 19.5668 19.3263 17.5272 19.3263 15.0001C19.3263 12.4729 17.3941 10.4334 15 10.4334ZM15 17.9681C13.4517 17.9681 12.1882 16.6344 12.1882 15.0001C12.1882 13.3658 13.4517 12.0321 15 12.0321C16.5483 12.0321 17.8118 13.3658 17.8118 15.0001C17.8118 16.6344 16.5483 17.9681 15 17.9681ZM19.5035 9.18208C18.9445 9.18208 18.4931 9.65856 18.4931 10.2486C18.4931 10.8386 18.9445 11.3151 19.5035 11.3151C20.0625 11.3151 20.5139 10.8409 20.5139 10.2486C20.5141 10.1085 20.4881 9.96973 20.4373 9.84025C20.3866 9.71078 20.3122 9.59313 20.2183 9.49406C20.1245 9.39499 20.013 9.31644 19.8904 9.2629C19.7677 9.20937 19.6363 9.1819 19.5035 9.18208ZM23.4333 15.0001C23.4333 13.771 23.4438 12.5531 23.3784 11.3263C23.313 9.90126 23.0051 8.63657 22.0179 7.59454C21.0286 6.55028 19.8326 6.22743 18.4826 6.15841C17.3182 6.08938 16.1644 6.10052 15.0021 6.10052C13.8377 6.10052 12.6839 6.08938 11.5216 6.15841C10.1716 6.22743 8.97352 6.55251 7.98633 7.59454C6.99703 8.6388 6.69117 9.90126 6.62578 11.3263C6.56039 12.5553 6.57094 13.7733 6.57094 15.0001C6.57094 16.2269 6.56039 17.4471 6.62578 18.6739C6.69117 20.0989 6.99914 21.3636 7.98633 22.4056C8.97563 23.4499 10.1716 23.7727 11.5216 23.8418C12.686 23.9108 13.8398 23.8997 15.0021 23.8997C16.1665 23.8997 17.3203 23.9108 18.4826 23.8418C19.8326 23.7727 21.0307 23.4477 22.0179 22.4056C23.0072 21.3614 23.313 20.0989 23.3784 18.6739C23.4459 17.4471 23.4333 16.2291 23.4333 15.0001ZM21.577 20.2503C21.423 20.6556 21.2374 20.9584 20.94 21.2701C20.6426 21.584 20.3578 21.78 19.9739 21.9425C18.8644 22.4079 16.2298 22.3032 15 22.3032C13.7702 22.3032 11.1335 22.4079 10.024 21.9447C9.64008 21.7822 9.35321 21.5863 9.05789 21.2723C8.76047 20.9584 8.57485 20.6578 8.42086 20.2525C7.98211 19.0792 8.08125 16.2982 8.08125 15.0001C8.08125 13.702 7.98211 10.9188 8.42086 9.74763C8.57485 9.34239 8.76047 9.03958 9.05789 8.72786C9.35531 8.41614 9.64008 8.21798 10.024 8.05544C11.1335 7.59231 13.7702 7.69696 15 7.69696C16.2298 7.69696 18.8665 7.59231 19.976 8.05544C20.3599 8.21798 20.6468 8.41391 20.9421 8.72786C21.2395 9.04181 21.4252 9.34239 21.5791 9.74763C22.0179 10.9188 21.9188 13.702 21.9188 15.0001C21.9188 16.2982 22.0179 19.0792 21.577 20.2503Z" fill="#ABCDF6"/>
</svg>
