<svg width="25" height="25" viewBox="0 0 50 50" fill="none" xmlns="http://www.w3.org/2000/svg">
<path d="M39.584 14.5832H22.9173V29.1665H6.25065V10.4165H2.08398V41.6665H6.25065V35.4165H43.7506V41.6665H47.9173V22.9165C47.9173 20.7064 47.0393 18.5868 45.4765 17.0239C43.9137 15.4611 41.7941 14.5832 39.584 14.5832ZM14.584 27.0832C16.2416 27.0832 17.8313 26.4247 19.0034 25.2526C20.1755 24.0805 20.834 22.4908 20.834 20.8332C20.834 19.1756 20.1755 17.5859 19.0034 16.4138C17.8313 15.2417 16.2416 14.5832 14.584 14.5832C12.9264 14.5832 11.3367 15.2417 10.1646 16.4138C8.99246 17.5859 8.33398 19.1756 8.33398 20.8332C8.33398 22.4908 8.99246 24.0805 10.1646 25.2526C11.3367 26.4247 12.9264 27.0832 14.584 27.0832Z" fill="#042048"/>
</svg>
