<svg width="25" height="25" viewBox="0 0 44 26" fill="none" xmlns="http://www.w3.org/2000/svg">
<path d="M7.5625 2.80785L8.26562 3.71533L9.125 4.84713H15.75V9.94532H3.25V2.80785H7.5625ZM8.53125 0.768579H1.6875C1.2731 0.768579 0.875671 0.876005 0.582646 1.06722C0.28962 1.25844 0.125 1.51779 0.125 1.78822V10.965C0.125 11.2354 0.28962 11.4947 0.582646 11.6859C0.875671 11.8772 1.2731 11.9846 1.6875 11.9846H17.3125C17.7269 11.9846 18.1243 11.8772 18.4174 11.6859C18.7104 11.4947 18.875 11.2354 18.875 10.965V3.82749C18.875 3.55707 18.7104 3.29772 18.4174 3.1065C18.1243 2.91528 17.7269 2.80785 17.3125 2.80785H11.0625L9.9375 1.32938C9.80647 1.15968 9.60537 1.01724 9.35689 0.918154C9.10841 0.819064 8.82244 0.767257 8.53125 0.768579ZM32.5625 2.80785L33.2656 3.71533L34.125 4.84713H40.75V9.94532H28.25V2.80785H32.5625ZM33.5312 0.768579H26.6875C26.2731 0.768579 25.8757 0.876005 25.5826 1.06722C25.2896 1.25844 25.125 1.51779 25.125 1.78822V10.965C25.125 11.2354 25.2896 11.4947 25.5826 11.6859C25.8757 11.8772 26.2731 11.9846 26.6875 11.9846H42.3125C42.7269 11.9846 43.1243 11.8772 43.4174 11.6859C43.7104 11.4947 43.875 11.2354 43.875 10.965V3.82749C43.875 3.55707 43.7104 3.29772 43.4174 3.1065C43.1243 2.91528 42.7269 2.80785 42.3125 2.80785H36.0625L34.9375 1.32938C34.8065 1.15968 34.6054 1.01724 34.3569 0.918154C34.1084 0.819064 33.8224 0.767257 33.5312 0.768579ZM7.5625 16.0631L8.26562 16.9706L9.125 18.1024H15.75V23.2006H3.25V16.0631H7.5625ZM8.53125 14.0239H1.6875C1.2731 14.0239 0.875671 14.1313 0.582646 14.3225C0.28962 14.5137 0.125 14.7731 0.125 15.0435V24.2202C0.125 24.4907 0.28962 24.75 0.582646 24.9412C0.875671 25.1325 1.2731 25.2399 1.6875 25.2399H17.3125C17.7269 25.2399 18.1243 25.1325 18.4174 24.9412C18.7104 24.75 18.875 24.4907 18.875 24.2202V17.0828C18.875 16.8124 18.7104 16.553 18.4174 16.3618C18.1243 16.1706 17.7269 16.0631 17.3125 16.0631H11.0625L9.9375 14.5847C9.80647 14.415 9.60537 14.2725 9.35689 14.1734C9.10841 14.0743 8.82244 14.0225 8.53125 14.0239ZM32.5625 16.0631L33.2656 16.9706L34.125 18.1024H40.75V23.2006H28.25V16.0631H32.5625ZM33.5312 14.0239H26.6875C26.2731 14.0239 25.8757 14.1313 25.5826 14.3225C25.2896 14.5137 25.125 14.7731 25.125 15.0435V24.2202C25.125 24.4907 25.2896 24.75 25.5826 24.9412C25.8757 25.1325 26.2731 25.2399 26.6875 25.2399H42.3125C42.7269 25.2399 43.1243 25.1325 43.4174 24.9412C43.7104 24.75 43.875 24.4907 43.875 24.2202V17.0828C43.875 16.8124 43.7104 16.553 43.4174 16.3618C43.1243 16.1706 42.7269 16.0631 42.3125 16.0631H36.0625L34.9375 14.5847C34.8065 14.415 34.6054 14.2725 34.3569 14.1734C34.1084 14.0743 33.8224 14.0225 33.5312 14.0239Z" fill="#042048"/>
</svg>
