<svg width="44" height="44" viewBox="0 0 44 44" fill="none" xmlns="http://www.w3.org/2000/svg">
<path d="M8.20617 23.7188V23.727C8.15986 23.9017 8.07957 24.0655 7.9699 24.2091C7.86023 24.3527 7.72333 24.4733 7.56702 24.564C7.41072 24.6546 7.23807 24.7136 7.05896 24.7375C6.87985 24.7614 6.69778 24.7498 6.52317 24.7032C5.33792 24.3897 5.54692 23.023 5.54692 23.023L5.59642 22.8525C5.59642 22.8525 5.66792 22.6215 5.72567 22.4537C6.43138 20.4751 7.47027 18.6317 8.79742 17.0033C11.2642 13.9948 15.4139 11 22.0002 11C28.5864 11 32.7362 13.9948 35.2057 17.0033C36.5328 18.6317 37.5717 20.4751 38.2774 22.4537C38.3365 22.6238 38.3916 22.7953 38.4424 22.968L38.4507 23.0037V23.0148L38.4534 23.0203C38.5406 23.3702 38.4869 23.7405 38.3037 24.0512C38.1205 24.3619 37.8225 24.5881 37.474 24.6812C37.1256 24.7743 36.7545 24.7267 36.4408 24.5487C36.127 24.3707 35.8958 24.0766 35.7969 23.7297L35.7942 23.7188L35.7722 23.65C35.6163 23.1632 35.4326 22.6858 35.2222 22.22C34.6617 20.9736 33.9406 19.806 33.0772 18.7467C31.0367 16.258 27.6212 13.75 22.0002 13.75C16.3792 13.75 12.9664 16.258 10.9232 18.7467C9.80255 20.1231 8.9238 21.6797 8.32442 23.3503C8.29045 23.4495 8.25836 23.5495 8.22817 23.65L8.20617 23.7188ZM22.0002 19.25C20.1768 19.25 18.4281 19.9743 17.1388 21.2636C15.8495 22.553 15.1252 24.3016 15.1252 26.125C15.1252 27.9484 15.8495 29.697 17.1388 30.9864C18.4281 32.2757 20.1768 33 22.0002 33C23.8235 33 25.5722 32.2757 26.8615 30.9864C28.1508 29.697 28.8752 27.9484 28.8752 26.125C28.8752 24.3016 28.1508 22.553 26.8615 21.2636C25.5722 19.9743 23.8235 19.25 22.0002 19.25ZM17.8752 26.125C17.8752 25.031 18.3098 23.9818 19.0834 23.2082C19.8569 22.4346 20.9062 22 22.0002 22C23.0942 22 24.1434 22.4346 24.917 23.2082C25.6906 23.9818 26.1252 25.031 26.1252 26.125C26.1252 27.219 25.6906 28.2682 24.917 29.0418C24.1434 29.8154 23.0942 30.25 22.0002 30.25C20.9062 30.25 19.8569 29.8154 19.0834 29.0418C18.3098 28.2682 17.8752 27.219 17.8752 26.125Z" fill="#C4C4C4"/>
</svg>
