<svg width="25" height="25" viewBox="0 0 50 50" fill="none" xmlns="http://www.w3.org/2000/svg">
<path d="M14.0625 9.375C12.8193 9.375 11.627 9.86886 10.7479 10.7479C9.86886 11.627 9.375 12.8193 9.375 14.0625V17.1875C9.375 17.6019 9.21038 17.9993 8.91735 18.2924C8.62433 18.5854 8.2269 18.75 7.8125 18.75C7.3981 18.75 7.00067 18.5854 6.70765 18.2924C6.41462 17.9993 6.25 17.6019 6.25 17.1875V14.0625C6.25 11.9905 7.0731 10.0034 8.53823 8.53823C10.0034 7.0731 11.9905 6.25 14.0625 6.25H17.1875C17.6019 6.25 17.9993 6.41462 18.2924 6.70765C18.5854 7.00067 18.75 7.3981 18.75 7.8125C18.75 8.2269 18.5854 8.62433 18.2924 8.91735C17.9993 9.21038 17.6019 9.375 17.1875 9.375H14.0625ZM40.625 14.0625C40.625 12.8193 40.1311 11.627 39.2521 10.7479C38.373 9.86886 37.1807 9.375 35.9375 9.375H32.8125C32.3981 9.375 32.0007 9.21038 31.7076 8.91735C31.4146 8.62433 31.25 8.2269 31.25 7.8125C31.25 7.3981 31.4146 7.00067 31.7076 6.70765C32.0007 6.41462 32.3981 6.25 32.8125 6.25H35.9375C38.0095 6.25 39.9966 7.0731 41.4618 8.53823C42.9269 10.0034 43.75 11.9905 43.75 14.0625V17.1875C43.75 17.6019 43.5854 17.9993 43.2924 18.2924C42.9993 18.5854 42.6019 18.75 42.1875 18.75C41.7731 18.75 41.3757 18.5854 41.0826 18.2924C40.7896 17.9993 40.625 17.6019 40.625 17.1875V14.0625ZM40.625 35.9375C40.625 37.1807 40.1311 38.373 39.2521 39.2521C38.373 40.1311 37.1807 40.625 35.9375 40.625H32.8125C32.3981 40.625 32.0007 40.7896 31.7076 41.0826C31.4146 41.3757 31.25 41.7731 31.25 42.1875C31.25 42.6019 31.4146 42.9993 31.7076 43.2924C32.0007 43.5854 32.3981 43.75 32.8125 43.75H35.9375C38.0095 43.75 39.9966 42.9269 41.4618 41.4618C42.9269 39.9966 43.75 38.0095 43.75 35.9375V32.8125C43.75 32.3981 43.5854 32.0007 43.2924 31.7076C42.9993 31.4146 42.6019 31.25 42.1875 31.25C41.7731 31.25 41.3757 31.4146 41.0826 31.7076C40.7896 32.0007 40.625 32.3981 40.625 32.8125V35.9375ZM9.375 35.9375C9.375 37.1807 9.86886 38.373 10.7479 39.2521C11.627 40.1311 12.8193 40.625 14.0625 40.625H17.9688C18.3832 40.625 18.7806 40.7896 19.0736 41.0826C19.3666 41.3757 19.5312 41.7731 19.5312 42.1875C19.5312 42.6019 19.3666 42.9993 19.0736 43.2924C18.7806 43.5854 18.3832 43.75 17.9688 43.75H14.0625C11.9905 43.75 10.0034 42.9269 8.53823 41.4618C7.0731 39.9966 6.25 38.0095 6.25 35.9375V32.0312C6.25 31.6168 6.41462 31.2194 6.70765 30.9264C7.00067 30.6334 7.3981 30.4688 7.8125 30.4688C8.2269 30.4688 8.62433 30.6334 8.91735 30.9264C9.21038 31.2194 9.375 31.6168 9.375 32.0312V35.9375ZM17.1875 12.5C15.9443 12.5 14.752 12.9939 13.8729 13.8729C12.9939 14.752 12.5 15.9443 12.5 17.1875V32.8125C12.5 34.0557 12.9939 35.248 13.8729 36.1271C14.752 37.0061 15.9443 37.5 17.1875 37.5H32.8125C34.0557 37.5 35.248 37.0061 36.1271 36.1271C37.0061 35.248 37.5 34.0557 37.5 32.8125V17.1875C37.5 15.9443 37.0061 14.752 36.1271 13.8729C35.248 12.9939 34.0557 12.5 32.8125 12.5H17.1875ZM15.625 17.1875C15.625 16.7731 15.7896 16.3757 16.0826 16.0826C16.3757 15.7896 16.7731 15.625 17.1875 15.625H32.8125C33.2269 15.625 33.6243 15.7896 33.9174 16.0826C34.2104 16.3757 34.375 16.7731 34.375 17.1875V32.8125C34.375 33.2269 34.2104 33.6243 33.9174 33.9174C33.6243 34.2104 33.2269 34.375 32.8125 34.375H17.1875C16.7731 34.375 16.3757 34.2104 16.0826 33.9174C15.7896 33.6243 15.625 33.2269 15.625 32.8125V17.1875Z" fill="#042048"/>
</svg>
